<?xml version="1.0" encoding="utf-8"?>
<!-- Generator: Adobe Illustrator 24.3.0, SVG Export Plug-In . SVG Version: 6.00 Build 0)  -->
<svg version="1.1" id="图层_1" xmlns="http://www.w3.org/2000/svg" xmlns:xlink="http://www.w3.org/1999/xlink" x="0px" y="0px"
	 viewBox="0 0 566.93 566.93" style="enable-background:new 0 0 566.93 566.93;" xml:space="preserve">
<style type="text/css">
	.st0{fill:none;stroke:#EB6100;stroke-width:7;stroke-miterlimit:10;}
</style>
<polyline class="st0" points="286.77,280.07 338.08,225.39 385.19,174.78 424.28,131.93 452.35,99.9 467.43,80.8 468.83,75.64 
	457.18,84.26 434.38,105.39 403.37,136.75 367.89,175.31 332.09,217.58 300.12,259.95 275.72,298.98 261.85,331.77 260.41,356.19 
	272.04,371.03 296.06,376.11 330.52,372.22 372.44,361.02 418.02,344.82 463.09,326.33 503.46,308.33 535.34,293.38 555.76,283.51 
	562.79,280.07 555.76,283.51 535.34,293.38 503.46,308.33 463.09,326.33 418.02,344.82 372.44,361.02 330.52,372.22 296.06,376.11 
	272.04,371.03 260.41,356.19 261.85,331.77 275.72,298.98 300.12,259.95 332.09,217.58 367.89,175.31 403.37,136.75 434.38,105.39 
	457.18,84.26 468.83,75.64 467.43,80.8 452.35,99.9 424.28,131.93 385.19,174.78 338.08,225.39 286.77,280.07 235.46,334.75 
	188.35,385.37 149.26,428.21 121.19,460.24 106.11,479.35 104.71,484.51 116.36,475.88 139.16,454.76 170.17,423.4 205.65,384.84 
	241.45,342.56 273.42,300.2 297.82,261.17 311.69,228.38 313.13,203.96 301.5,189.12 277.48,184.04 243.01,187.93 201.1,199.13 
	155.51,215.33 110.45,233.81 70.08,251.81 38.2,266.77 17.78,276.63 10.75,280.07 17.78,276.63 38.2,266.77 70.08,251.81 
	110.45,233.81 155.51,215.33 201.1,199.13 243.01,187.93 277.48,184.04 301.5,189.12 313.13,203.96 311.69,228.38 297.82,261.17 
	273.42,300.2 241.45,342.56 205.65,384.84 170.17,423.4 139.16,454.76 116.36,475.88 104.71,484.51 106.11,479.35 121.19,460.24 
	149.26,428.21 188.35,385.37 235.46,334.75 286.77,280.07 338.08,225.39 385.19,174.78 424.28,131.93 452.35,99.9 467.43,80.8 
	468.83,75.64 457.18,84.26 434.38,105.39 403.37,136.75 367.89,175.31 332.09,217.58 300.12,259.95 275.72,298.98 261.85,331.77 
	260.41,356.19 272.04,371.03 296.06,376.11 330.52,372.22 372.44,361.02 418.02,344.82 463.09,326.33 503.46,308.33 535.34,293.38 
	555.76,283.51 562.79,280.07 555.76,283.51 535.34,293.38 503.46,308.33 463.09,326.33 418.02,344.82 372.44,361.02 330.52,372.22 
	296.06,376.11 272.04,371.03 260.41,356.19 261.85,331.77 275.72,298.98 300.12,259.95 332.09,217.58 367.89,175.31 403.37,136.75 
	434.38,105.39 457.18,84.26 468.83,75.64 467.43,80.8 452.35,99.9 424.28,131.93 385.19,174.78 338.08,225.39 286.77,280.07 
	235.46,334.75 188.35,385.37 149.26,428.21 121.19,460.24 106.11,479.35 104.71,484.51 116.36,475.88 139.16,454.76 170.17,423.4 
	205.65,384.84 241.45,342.56 273.42,300.2 297.82,261.17 311.69,228.38 313.13,203.96 301.5,189.12 277.48,184.04 243.01,187.93 
	201.1,199.13 155.51,215.33 110.45,233.81 70.08,251.81 38.2,266.77 17.78,276.63 10.75,280.07 17.78,276.63 38.2,266.77 
	70.08,251.81 110.45,233.81 155.51,215.33 201.1,199.13 243.01,187.93 277.48,184.04 301.5,189.12 313.13,203.96 311.69,228.38 
	297.82,261.17 273.42,300.2 241.45,342.56 205.65,384.84 170.17,423.4 139.16,454.76 116.36,475.88 104.71,484.51 106.11,479.35 
	121.19,460.24 149.26,428.21 188.35,385.37 235.46,334.75 286.77,280.07 338.08,225.39 385.19,174.78 424.28,131.93 452.35,99.9 
	467.43,80.8 468.83,75.64 457.18,84.26 434.38,105.39 403.37,136.75 367.89,175.31 332.09,217.58 300.12,259.95 275.72,298.98 
	261.85,331.77 260.41,356.19 272.04,371.03 296.06,376.11 330.52,372.22 372.44,361.02 418.02,344.82 463.09,326.33 503.46,308.33 
	535.34,293.38 555.76,283.51 562.79,280.07 555.76,283.51 535.34,293.38 503.46,308.33 463.09,326.33 418.02,344.82 372.44,361.02 
	330.52,372.22 296.06,376.11 272.04,371.03 260.41,356.19 261.85,331.77 275.72,298.98 300.12,259.95 332.09,217.58 367.89,175.31 
	403.37,136.75 434.38,105.39 457.18,84.26 468.83,75.64 467.43,80.8 452.35,99.9 424.28,131.93 385.19,174.78 338.08,225.39 
	286.77,280.07 235.46,334.75 188.35,385.37 149.26,428.21 121.19,460.24 106.11,479.35 104.71,484.51 116.36,475.88 139.16,454.76 
	170.17,423.4 205.65,384.84 241.45,342.56 273.42,300.2 297.82,261.17 311.69,228.38 313.13,203.96 301.5,189.12 277.48,184.04 
	243.01,187.93 201.1,199.13 155.51,215.33 110.45,233.81 70.08,251.81 38.2,266.77 17.78,276.63 10.75,280.07 17.78,276.63 
	38.2,266.77 70.08,251.81 110.45,233.81 155.51,215.33 201.1,199.13 243.01,187.93 277.48,184.04 301.5,189.12 313.13,203.96 
	311.69,228.38 297.82,261.17 273.42,300.2 241.45,342.56 205.65,384.84 170.17,423.4 139.16,454.76 116.36,475.88 104.71,484.51 
	106.11,479.35 121.19,460.24 149.26,428.21 188.35,385.37 235.46,334.75 286.77,280.07 338.08,225.39 385.19,174.78 424.28,131.93 
	452.35,99.9 467.43,80.8 468.83,75.64 457.18,84.26 434.38,105.39 403.37,136.75 367.89,175.31 332.09,217.58 300.12,259.95 
	275.72,298.98 261.85,331.77 260.41,356.19 272.04,371.03 296.06,376.11 330.52,372.22 372.44,361.02 418.02,344.82 463.09,326.33 
	503.46,308.33 535.34,293.38 555.76,283.51 562.79,280.07 555.76,283.51 535.34,293.38 503.46,308.33 463.09,326.33 418.02,344.82 
	372.44,361.02 330.52,372.22 296.06,376.11 272.04,371.03 260.41,356.19 261.85,331.77 275.72,298.98 300.12,259.95 332.09,217.58 
	367.89,175.31 403.37,136.75 434.38,105.39 457.18,84.26 468.83,75.64 467.43,80.8 452.35,99.9 424.28,131.93 385.19,174.78 
	338.08,225.39 286.77,280.07 235.46,334.75 188.35,385.37 149.26,428.21 121.19,460.24 106.11,479.35 104.71,484.51 116.36,475.88 
	139.16,454.76 170.17,423.4 205.65,384.84 241.45,342.56 273.42,300.2 297.82,261.17 311.69,228.38 313.13,203.96 301.5,189.12 
	277.48,184.04 243.01,187.93 201.1,199.13 155.51,215.33 110.45,233.81 70.08,251.81 38.2,266.77 17.78,276.63 10.75,280.07 
	17.78,276.63 38.2,266.77 70.08,251.81 110.45,233.81 155.51,215.33 201.1,199.13 243.01,187.93 277.48,184.04 301.5,189.12 
	313.13,203.96 311.69,228.38 297.82,261.17 273.42,300.2 241.45,342.56 205.65,384.84 170.17,423.4 139.16,454.76 116.36,475.88 
	104.71,484.51 106.11,479.35 121.19,460.24 149.26,428.21 188.35,385.37 235.46,334.75 286.77,280.07 338.08,225.39 385.19,174.78 
	424.28,131.93 452.35,99.9 467.43,80.8 468.83,75.64 457.18,84.26 434.38,105.39 403.37,136.75 367.89,175.31 332.09,217.58 
	300.12,259.95 275.72,298.98 261.85,331.77 260.41,356.19 272.04,371.03 296.06,376.11 330.52,372.22 372.44,361.02 418.02,344.82 
	463.09,326.33 503.46,308.33 535.34,293.38 555.76,283.51 562.79,280.07 555.76,283.51 535.34,293.38 503.46,308.33 463.09,326.33 
	418.02,344.82 372.44,361.02 330.52,372.22 296.06,376.11 272.04,371.03 260.41,356.19 261.85,331.77 275.72,298.98 300.12,259.95 
	332.09,217.58 367.89,175.31 403.37,136.75 434.38,105.39 457.18,84.26 468.83,75.64 467.43,80.8 452.35,99.9 424.28,131.93 
	385.19,174.78 338.08,225.39 286.77,280.07 235.46,334.75 188.35,385.37 149.26,428.21 121.19,460.24 106.11,479.35 104.71,484.51 
	116.36,475.88 139.16,454.76 170.17,423.4 205.65,384.84 241.45,342.56 273.42,300.2 297.82,261.17 311.69,228.38 313.13,203.96 
	301.5,189.12 277.48,184.04 243.01,187.93 201.1,199.13 155.51,215.33 110.45,233.81 70.08,251.81 38.2,266.77 17.78,276.63 
	10.75,280.07 17.78,276.63 38.2,266.77 70.08,251.81 110.45,233.81 155.51,215.33 201.1,199.13 243.01,187.93 277.48,184.04 
	301.5,189.12 313.13,203.96 311.69,228.38 297.82,261.17 273.42,300.2 241.45,342.56 205.65,384.84 170.17,423.4 139.16,454.76 
	116.36,475.88 104.71,484.51 106.11,479.35 121.19,460.24 149.26,428.21 188.35,385.37 235.46,334.75 286.77,280.07 338.08,225.39 
	385.19,174.78 424.28,131.93 452.35,99.9 467.43,80.8 468.83,75.64 457.18,84.26 434.38,105.39 403.37,136.75 367.89,175.31 
	332.09,217.58 300.12,259.95 275.72,298.98 261.85,331.77 260.41,356.19 272.04,371.03 296.06,376.11 330.52,372.22 372.44,361.02 
	418.02,344.82 463.09,326.33 503.46,308.33 535.34,293.38 555.76,283.51 562.79,280.07 555.76,283.51 535.34,293.38 503.46,308.33 
	463.09,326.33 418.02,344.82 372.44,361.02 330.52,372.22 296.06,376.11 272.04,371.03 260.41,356.19 261.85,331.77 275.72,298.98 
	300.12,259.95 332.09,217.58 367.89,175.31 403.37,136.75 434.38,105.39 457.18,84.26 468.83,75.64 467.43,80.8 452.35,99.9 
	424.28,131.93 385.19,174.78 338.08,225.39 286.77,280.07 235.46,334.75 188.35,385.37 149.26,428.21 121.19,460.24 106.11,479.35 
	104.71,484.51 116.36,475.88 139.16,454.76 170.17,423.4 205.65,384.84 241.45,342.56 273.42,300.2 297.82,261.17 311.69,228.38 
	313.13,203.96 301.5,189.12 277.48,184.04 243.01,187.93 201.1,199.13 155.51,215.33 110.45,233.81 70.08,251.81 38.2,266.77 
	17.78,276.63 10.75,280.07 17.78,276.63 38.2,266.77 70.08,251.81 110.45,233.81 155.51,215.33 201.1,199.13 243.01,187.93 
	277.48,184.04 301.5,189.12 313.13,203.96 311.69,228.38 297.82,261.17 273.42,300.2 241.45,342.56 205.65,384.84 170.17,423.4 
	139.16,454.76 116.36,475.88 104.71,484.51 106.11,479.35 121.19,460.24 149.26,428.21 188.35,385.37 235.46,334.75 286.77,280.07 
	338.08,225.39 385.19,174.78 424.28,131.93 452.35,99.9 467.43,80.8 468.83,75.64 457.18,84.26 434.38,105.39 403.37,136.75 
	367.89,175.31 332.09,217.58 300.12,259.95 275.72,298.98 261.85,331.77 260.41,356.19 272.04,371.03 296.06,376.11 330.52,372.22 
	372.44,361.02 418.02,344.82 463.09,326.33 503.46,308.33 535.34,293.38 555.76,283.51 562.79,280.07 555.76,283.51 535.34,293.38 
	503.46,308.33 "/>
</svg>
